<?xml version="1.0" encoding="utf-8"?>
<!-- Generator: Adobe Illustrator 25.4.1, SVG Export Plug-In . SVG Version: 6.00 Build 0)  -->
<svg version="1.1" id="Vrstva_1" xmlns="http://www.w3.org/2000/svg" xmlns:xlink="http://www.w3.org/1999/xlink" x="0px" y="0px"
	 viewBox="0 0 1032.76 311.58" style="enable-background:new 0 0 1032.76 311.58;" xml:space="preserve">
<style type="text/css">
	.st0{display:none;fill:#FFFFFF;}
	.st1{fill:#010200;}
	.st2{fill:#E5AE43;}
</style>
<rect class="st0" width="1032.76" height="311.58"/>
<g>
	<path class="st1" d="M244.39,179.34v-47.25h34.9c5.03,0,8.69,1,10.99,3.01s3.45,4.43,3.45,7.26v2.41c0,2.19-0.47,4-1.4,5.41
		c-0.94,1.42-1.94,2.42-3.01,3.01c2.35,0.75,4.22,2.05,5.62,3.89c1.39,1.84,2.09,4.27,2.09,7.26v1.44c0,1.6-0.19,3.21-0.56,4.81
		c-0.37,1.6-1.08,3.06-2.13,4.37c-1.04,1.31-2.51,2.37-4.41,3.17s-4.37,1.2-7.42,1.2h-38.12V179.34z M254.98,151.02h22.62
		c1.87,0.05,3.26-0.41,4.17-1.4c0.91-0.99,1.36-2.23,1.36-3.73v-0.8c0-1.23-0.43-2.42-1.28-3.57c-0.86-1.15-2.46-1.72-4.81-1.72
		h-22.06L254.98,151.02L254.98,151.02z M254.98,171.64h25.27c2.03,0,3.57-0.51,4.61-1.52c1.04-1.02,1.56-2.41,1.56-4.17v-1.44
		c0-1.66-0.62-3.01-1.84-4.05c-1.23-1.04-3.26-1.56-6.1-1.56h-23.5L254.98,171.64L254.98,171.64z"/>
	<path class="st1" d="M316.27,179.34v-47.17h49.9v7.7h-39.31v11.07h30v7.94h-30v12.76h39.63l3.21,6.82c0,0.21-0.72,0.41-2.17,0.6
		c-1.44,0.19-3.93,0.28-7.46,0.28L316.27,179.34L316.27,179.34z"/>
	<path class="st1" d="M394.72,179.34c-3.64,0-6.31-0.16-8.02-0.48c-1.71-0.32-2.57-0.69-2.57-1.12l3.21-6.98
		c1.23,0.21,4.29,0.42,9.19,0.6c4.89,0.19,11.62,0.28,20.18,0.28h1.52c2.3,0,3.93-0.41,4.89-1.24c0.96-0.83,1.44-2.23,1.44-4.21
		v-1.6c0-1.87-0.39-3.21-1.16-4.01c-0.78-0.8-2.5-1.2-5.17-1.2h-18.61c-5.4,0-9.33-1-11.79-3.01c-2.46-2.01-3.69-5.28-3.69-9.83
		v-1.28c0-2.35,0.44-4.52,1.32-6.5s2.39-3.57,4.53-4.77c2.14-1.2,5.08-1.8,8.82-1.8h21.82c3.64,0,6.58,0.19,8.82,0.56
		c2.25,0.37,3.37,0.78,3.37,1.2l-1.6,6.74c-1.39-0.16-4.55-0.33-9.47-0.52s-11.53-0.28-19.81-0.28l-0.88-0.08
		c-2.46,0-4.12,0.5-4.97,1.48c-0.86,0.99-1.31,2.23-1.36,3.73v1.36c0,1.76,0.49,3.09,1.48,3.97c0.99,0.88,2.63,1.32,4.93,1.32h17.81
		c3.42,0,6.34,0.35,8.74,1.04c2.41,0.7,4.25,1.97,5.54,3.81c1.28,1.84,1.93,4.56,1.93,8.14v1.28c0,4.01-1.03,7.25-3.09,9.71
		s-5.63,3.69-10.71,3.69H394.72z"/>
	<path class="st1" d="M468.93,179.34l-0.08-39.55h-20.86v-7.7h52.46v7.7h-20.94v39.55H468.93z"/>
	<path class="st1" d="M502.06,179.34l23.5-47.17h15.8l23.42,47.17h-12.35l-4.73-10.19h-28.72l-5.21,10.19H502.06z M521.87,161.29
		h22.86l-10.99-21.9h-0.8L521.87,161.29z"/>
	<path class="st1" d="M590.38,180.14c-4.87,0-8.26-1.31-10.19-3.93s-2.89-6.1-2.89-10.43v-33.61h10.59v33.93
		c0,2.51,0.61,4.2,1.84,5.05c1.23,0.86,2.75,1.28,4.57,1.28h17.01c1.71,0,3.21-0.44,4.49-1.32c1.28-0.88,1.93-2.55,1.93-5.01v-33.93
		h10.59v33.61c0,2.89-0.4,5.4-1.2,7.54s-2.14,3.81-4.01,5.01s-4.47,1.8-7.78,1.8L590.38,180.14L590.38,180.14z"/>
	<path class="st1" d="M650.39,179.34v-40.75l-0.8-6.42h37.22c4.33,0,7.66,0.54,9.99,1.6c2.33,1.07,3.94,2.66,4.85,4.77
		s1.36,4.75,1.36,7.9v18.53c0,3.21-0.44,5.87-1.32,7.98s-2.49,3.7-4.81,4.77c-2.33,1.07-5.68,1.6-10.07,1.6h-36.42V179.34z
		 M660.97,171.64h25.19c4.12,0,6.2-1.9,6.26-5.7v-20.46c0-1.55-0.46-2.87-1.36-3.97c-0.91-1.1-2.54-1.64-4.89-1.64h-25.19v31.77
		H660.97z"/>
	<path class="st1" d="M723.87,179.34v-47.17h10.59v47.17H723.87z"/>
	<path class="st1" d="M770.79,179.34c-3.74,0-6.69-0.53-8.82-1.6c-2.14-1.07-3.65-2.67-4.53-4.81s-1.32-4.79-1.32-7.94v-18.53
		c0-3.1,0.43-5.71,1.28-7.82c0.86-2.11,2.35-3.72,4.49-4.81c2.14-1.1,5.11-1.64,8.9-1.64h23.42c3.74,0,6.67,0.55,8.78,1.64
		c2.11,1.1,3.61,2.7,4.49,4.81s1.32,4.72,1.32,7.82v18.53c0,4.71-1.04,8.28-3.13,10.71c-2.09,2.43-5.91,3.65-11.47,3.65
		L770.79,179.34L770.79,179.34z M773.12,171.64h18.85c1.98,0,3.52-0.51,4.61-1.52c1.1-1.02,1.64-2.41,1.64-4.17v-20.46
		c0-1.55-0.56-2.87-1.68-3.97s-2.65-1.64-4.57-1.64h-18.85c-1.93,0-3.48,0.51-4.65,1.52c-1.18,1.02-1.77,2.38-1.77,4.09v20.46
		c0,1.82,0.57,3.22,1.72,4.21C769.58,171.14,771.14,171.64,773.12,171.64z"/>
	<path class="st1" d="M834.57,179.34c-1.98,0-3.42-0.4-4.33-1.2c-0.91-0.8-1.36-2.14-1.36-4.01c0-1.93,0.44-3.28,1.32-4.05
		s2.34-1.16,4.37-1.16c2.03,0,3.5,0.39,4.41,1.16c0.91,0.78,1.36,2.13,1.36,4.05c0,1.82-0.46,3.14-1.36,3.97
		C838.07,178.92,836.6,179.34,834.57,179.34z"/>
	<path class="st1" d="M873.48,179.34c-3.8,0-6.77-0.53-8.9-1.6c-2.14-1.07-3.64-2.67-4.49-4.81c-0.86-2.14-1.28-4.79-1.28-7.94
		V147.1c0-5.13,1.15-8.92,3.45-11.35c2.3-2.43,6.04-3.65,11.23-3.65h24.15c3.69,0,6.51,0.2,8.46,0.6c1.95,0.4,2.93,0.82,2.93,1.24
		l-1.6,6.66c-0.91-0.16-3.6-0.33-8.06-0.52c-4.47-0.19-10.95-0.28-19.45-0.28h-4.09c-4.28,0-6.42,1.9-6.42,5.7v20.46
		c0,1.82,0.47,3.22,1.4,4.21c0.93,0.99,2.61,1.48,5.01,1.48h3.29c8.88,0,15.76-0.09,20.66-0.28c4.89-0.19,7.93-0.39,9.11-0.6
		l3.29,5.3c0,0.27-0.44,0.67-1.32,1.2c-0.88,0.54-2.5,1.02-4.85,1.44c-2.35,0.43-5.75,0.64-10.19,0.64L873.48,179.34L873.48,179.34z
		"/>
	<path class="st1" d="M927.38,179.34v-7.78L963,139.87h-35.62v-7.7h49.82v7.7l-36.34,31.77h35.94l3.21,6.82
		c0,0.21-0.72,0.41-2.17,0.6c-1.44,0.19-3.93,0.28-7.46,0.28L927.38,179.34L927.38,179.34z"/>
</g>
<g>
	<g>
		<rect x="52.62" y="93.52" class="st2" width="10.04" height="125.26"/>
	</g>
	<g>
		<rect x="104.27" y="110.6" class="st2" width="10.04" height="91.1"/>
	</g>
	<g>
		<rect x="78.45" y="47.97" class="st2" width="10.04" height="216.36"/>
	</g>
	<g>
		<rect x="130.09" y="93.52" class="st2" width="10.04" height="125.26"/>
	</g>
	<g>
		<rect x="181.73" y="110.6" class="st2" width="10.04" height="91.1"/>
	</g>
	<g>
		<rect x="155.91" y="47.97" class="st2" width="10.04" height="216.36"/>
	</g>
</g>
</svg>
