<?xml version="1.0" encoding="UTF-8" standalone="no"?>
<!DOCTYPE svg PUBLIC "-//W3C//DTD SVG 1.1//EN" "http://www.w3.org/Graphics/SVG/1.1/DTD/svg11.dtd">
<svg width="100%" height="100%" viewBox="0 0 1211 276" version="1.1" xmlns="http://www.w3.org/2000/svg" xmlns:xlink="http://www.w3.org/1999/xlink" xml:space="preserve" xmlns:serif="http://www.serif.com/" style="fill-rule:evenodd;clip-rule:evenodd;stroke-linejoin:round;stroke-miterlimit:2;">
    <g transform="matrix(1,0,0,1,-80.6557,-165.931)">
        <g transform="matrix(0.461931,0,0,0.461931,-148.201,-98.7102)">
            <g transform="matrix(19.506,0,0,19.506,1869.18,-585.737)">
                <path d="M11.555,72.766L7.81,62.125C7.778,62.012 7.707,61.914 7.61,61.849C7.517,61.792 7.41,61.763 7.301,61.764C7.068,61.75 6.855,61.902 6.791,62.126L3.042,72.766L0.552,72.766L4.702,61.125C4.866,60.587 5.217,60.126 5.692,59.825C6.682,59.26 7.902,59.26 8.892,59.825C9.371,60.123 9.726,60.585 9.892,61.125L14.042,72.766L11.555,72.766Z" style="fill:white;fill-rule:nonzero;"/>
                <path d="M26.688,67.698C26.699,68.405 26.58,69.108 26.338,69.773C26.113,70.377 25.757,70.924 25.294,71.373C24.796,71.842 24.2,72.195 23.549,72.406C22.755,72.661 21.925,72.783 21.091,72.768C20.27,72.782 19.453,72.656 18.675,72.395C18.022,72.176 17.421,71.824 16.909,71.363C16.433,70.923 16.061,70.38 15.823,69.777C15.568,69.123 15.442,68.425 15.451,67.723L15.451,59.402L17.791,59.402L17.791,67.682C17.77,68.441 18.095,69.17 18.675,69.66C19.366,70.205 20.234,70.477 21.112,70.426L21.175,70.426C22.039,70.494 22.896,70.218 23.559,69.66C24.087,69.14 24.373,68.422 24.346,67.681L24.346,59.401L26.687,59.401L26.688,67.698Z" style="fill:white;fill-rule:nonzero;"/>
                <path d="M35.094,72.766L32.754,72.766L32.754,61.74L28.177,61.74L28.177,59.399L39.477,59.399L39.477,61.739L35.093,61.739L35.094,72.766Z" style="fill:white;fill-rule:nonzero;"/>
                <path d="M49.27,72.766L45.524,62.125C45.492,62.012 45.421,61.914 45.324,61.849C45.231,61.792 45.123,61.762 45.014,61.764C44.781,61.75 44.568,61.902 44.504,62.126L40.756,72.766L38.266,72.766L42.416,61.125C42.58,60.587 42.931,60.126 43.405,59.825C44.395,59.26 45.615,59.26 46.605,59.825C47.084,60.123 47.439,60.585 47.605,61.125L51.755,72.766L49.27,72.766Z" style="fill:white;fill-rule:nonzero;"/>
                <path d="M12.62,85.874C12.699,86.966 12.289,88.039 11.502,88.8C10.622,89.506 9.51,89.859 8.384,89.79L1.531,89.79L1.531,87.453L8.831,87.453C9.228,87.46 9.607,87.288 9.863,86.985C10.415,86.334 10.415,85.369 9.863,84.718C9.61,84.409 9.23,84.233 8.831,84.238L5.064,84.238C4.391,84.258 3.72,84.139 3.095,83.888C2.603,83.683 2.16,83.377 1.795,82.988C1.468,82.63 1.221,82.205 1.072,81.743C0.926,81.3 0.851,80.836 0.85,80.37C0.846,79.853 0.925,79.34 1.084,78.848C1.236,78.379 1.49,77.95 1.829,77.592C2.196,77.213 2.644,76.922 3.139,76.741C3.756,76.522 4.409,76.417 5.064,76.433L11.727,76.433L11.727,78.773L4.7,78.773C4.295,78.771 3.907,78.941 3.636,79.242C3.348,79.53 3.187,79.921 3.189,80.328C3.18,80.744 3.337,81.146 3.626,81.445C3.91,81.748 4.311,81.915 4.726,81.903L8.426,81.903C9.535,81.842 10.627,82.195 11.491,82.893C12.281,83.644 12.695,84.711 12.619,85.798L12.62,85.874Z" style="fill:white;fill-rule:nonzero;"/>
                <path d="M25.581,84.725C25.592,85.432 25.473,86.135 25.231,86.8C25.007,87.404 24.65,87.951 24.188,88.4C23.69,88.869 23.094,89.222 22.443,89.432C21.649,89.687 20.819,89.81 19.985,89.794C19.164,89.808 18.347,89.682 17.569,89.422C16.916,89.203 16.315,88.851 15.803,88.39C15.327,87.949 14.956,87.407 14.717,86.804C14.462,86.15 14.336,85.452 14.345,84.75L14.345,76.429L16.685,76.429L16.685,84.708C16.664,85.467 16.989,86.196 17.569,86.687C18.26,87.232 19.128,87.505 20.006,87.453L20.07,87.453C20.934,87.521 21.791,87.245 22.454,86.687C22.983,86.167 23.268,85.448 23.241,84.707L23.241,76.43L25.582,76.43L25.581,84.725Z" style="fill:white;fill-rule:nonzero;"/>
                <path d="M27.517,85.789C27.441,84.702 27.855,83.635 28.645,82.884C29.509,82.186 30.601,81.833 31.71,81.894L34.52,81.894C34.935,81.906 35.336,81.739 35.62,81.436C35.909,81.137 36.066,80.735 36.057,80.319C36.059,79.912 35.898,79.521 35.61,79.233C35.338,78.932 34.95,78.762 34.545,78.765L27.521,78.765L27.521,76.424L34.183,76.424C34.83,76.41 35.474,76.514 36.083,76.732C36.578,76.913 37.026,77.204 37.393,77.582C37.732,77.942 37.989,78.371 38.148,78.839C38.314,79.329 38.396,79.844 38.393,80.361C38.392,80.835 38.316,81.305 38.169,81.755C38.018,82.219 37.768,82.644 37.435,83C37.067,83.388 36.62,83.692 36.125,83.894C35.505,84.137 34.843,84.252 34.177,84.234L31.304,84.234C30.905,84.228 30.525,84.405 30.272,84.713C30,85.021 29.852,85.419 29.857,85.83L29.857,89.79L27.517,89.79L27.517,85.789Z" style="fill:white;fill-rule:nonzero;"/>
                <path d="M50.754,78.766L43.73,78.766C43.325,78.763 42.938,78.934 42.666,79.234C42.378,79.522 42.217,79.913 42.219,80.32C42.209,80.734 42.362,81.135 42.645,81.437C42.93,81.743 43.334,81.91 43.752,81.895L50.752,81.895L50.752,84.235L43.728,84.235C43.323,84.233 42.935,84.404 42.664,84.705C42.376,84.993 42.215,85.384 42.217,85.791C42.198,86.231 42.35,86.662 42.643,86.991C42.928,87.296 43.332,87.463 43.75,87.448L50.75,87.448L50.75,89.789L44.09,89.789C43.417,89.809 42.747,89.693 42.12,89.449C41.625,89.25 41.181,88.942 40.82,88.549C40.492,88.183 40.246,87.751 40.098,87.283C39.949,86.815 39.873,86.327 39.874,85.836C39.875,85.303 39.991,84.777 40.214,84.293C40.449,83.781 40.836,83.353 41.322,83.069C40.826,82.789 40.434,82.355 40.204,81.834C39.995,81.372 39.883,80.873 39.874,80.366C39.869,79.83 39.955,79.298 40.13,78.791C40.292,78.322 40.553,77.894 40.896,77.535C41.262,77.163 41.711,76.883 42.205,76.715C42.812,76.512 43.449,76.415 44.088,76.429L50.755,76.429L50.754,78.766Z" style="fill:white;fill-rule:nonzero;"/>
                <path d="M52.695,85.789C52.619,84.702 53.033,83.635 53.823,82.884C54.687,82.186 55.779,81.833 56.888,81.894L59.698,81.894C60.113,81.906 60.514,81.739 60.798,81.436C61.087,81.137 61.244,80.735 61.235,80.319C61.237,79.912 61.076,79.521 60.788,79.233C60.516,78.933 60.129,78.762 59.724,78.765L52.7,78.765L52.7,76.424L59.362,76.424C60.01,76.409 60.656,76.514 61.267,76.732C61.762,76.913 62.209,77.204 62.576,77.582C62.915,77.942 63.173,78.371 63.332,78.839C63.497,79.329 63.58,79.844 63.577,80.361C63.576,80.834 63.501,81.305 63.354,81.755C63.204,82.219 62.953,82.644 62.62,83C62.252,83.388 61.805,83.693 61.31,83.894C60.691,84.136 60.029,84.252 59.364,84.234L56.664,84.234L63.9,87.405L63.9,90.005L55.046,86.025L55.046,89.792L52.706,89.792L52.695,85.789Z" style="fill:white;fill-rule:nonzero;"/>
            </g>
            <g transform="matrix(13.0028,0,0,13.0028,494.135,572.973)">
                <path d="M21.755,2.595L0.1,45.905L10.68,45.905L25.965,15.346L41.245,45.908L51.825,45.908L30.164,2.595C29.37,1.004 27.737,-0.005 25.959,-0.005C24.181,-0.005 22.548,1.004 21.754,2.595L21.755,2.595Z" style="fill:white;fill-rule:nonzero;"/>
                <path d="M95.9,0.065C95.9,0.065 47.086,0.065 47.086,0.065C44.507,0.065 42.386,2.187 42.386,4.765C42.386,5.494 42.555,6.213 42.881,6.865L51.109,23.322C51.904,24.913 53.536,25.922 55.314,25.922L72.391,25.922L66.81,36.502L57.87,36.502L62.4,45.902L70.085,45.902C71.856,45.902 73.481,44.898 74.273,43.314L84.273,23.321C84.599,22.669 84.768,21.95 84.768,21.221C84.768,18.643 82.647,16.521 80.068,16.521C80.068,16.521 58.285,16.521 58.285,16.521L54.76,9.469L91.2,9.469L95.9,0.065Z" style="fill:white;fill-rule:nonzero;"/>
            </g>
        </g>
    </g>
</svg>
