<?xml version="1.0" encoding="UTF-8" standalone="no"?>
<!DOCTYPE svg PUBLIC "-//W3C//DTD SVG 1.1//EN" "http://www.w3.org/Graphics/SVG/1.1/DTD/svg11.dtd">
<svg width="100%" height="100%" viewBox="0 0 1252 433" version="1.1" xmlns="http://www.w3.org/2000/svg" xmlns:xlink="http://www.w3.org/1999/xlink" xml:space="preserve" xmlns:serif="http://www.serif.com/" style="fill-rule:evenodd;clip-rule:evenodd;stroke-linejoin:round;stroke-miterlimit:2;">
    <g transform="matrix(1,0,0,1,-82.473,-863.771)">
        <g transform="matrix(7.72246,0,0,7.72246,707.992,1080)">
            <g transform="matrix(1,0,0,1,-81,-28)">
                <g>
                    <g>
                        <path d="M80.5,20.2L75.6,20.2L75.6,15L80.5,15L80.5,20.2ZM75.7,22.6L80.6,22.6L80.6,40.5L75.7,40.5L75.7,22.6Z" style="fill:white;fill-rule:nonzero;"/>
                        <path d="M89.7,22.6L89.7,23.6C90.8,23.2 93.6,22 95.2,22C96.8,22 98.1,22.4 99.1,23.4C100.2,24.5 100.7,26.1 100.7,29.7L100.7,40.4L95.8,40.4L95.8,30C95.8,28.8 95.8,27.9 95.3,27.3C94.9,26.8 94.3,26.8 93.7,26.8C92.5,26.8 90.6,27.6 89.7,28L89.7,40.5L84.8,40.5L84.8,22.6L89.7,22.6Z" style="fill:white;fill-rule:nonzero;"/>
                        <path d="M107.6,22.6L111.7,35.6L115.8,22.6L121,22.6L114.9,40.5L108.3,40.5L102.3,22.6L107.6,22.6Z" style="fill:white;fill-rule:nonzero;"/>
                        <path d="M121.9,31.7C121.9,29.6 122.1,27 123.2,25.2C124.5,23.1 126.8,22.1 130.2,22.1C133.5,22.1 135.7,23 136.9,24.6C138.2,26.4 138.3,28.7 138.3,29.9C138.3,30.9 138.1,32.7 138,33.6L126.7,33.6C126.7,34.2 126.8,34.8 127.2,35.4C127.9,36.4 129.2,36.8 131.2,36.8C133.5,36.8 135.7,36.5 137.5,36.2L137.5,40.4C135.8,40.7 133.3,41.1 130.8,41.1C126.8,41.1 124.9,40.1 123.6,38.2C122.2,36.5 121.9,34.6 121.9,31.7M126.6,30L133.5,30C133.5,29.8 133.6,29.5 133.6,29.1C133.6,28.5 133.5,27.8 133.1,27.2C132.5,26.4 131.5,26 130.2,26C128.7,26 127.8,26.4 127.2,27.4C126.8,28.1 126.6,29.2 126.6,30" style="fill:white;fill-rule:nonzero;"/>
                        <rect x="141.8" y="15" width="4.9" height="25.5" style="fill:white;"/>
                        <path d="M151,17.9L155.9,17.9L155.9,22.9L161.4,22.9L161.4,27.4L155.9,27.4L155.9,32.6C155.9,33.4 155.9,34.1 156,34.7C156.1,35.2 156.4,35.6 157.2,35.9C158.1,36.2 159.3,36.2 160.5,36.3L160.5,40.7C158,40.6 155.6,40.4 154.1,39.9C152.6,39.4 151.9,38.7 151.6,37.7C151.2,36.6 151.2,35.4 151.2,32.8L151.2,17.9L151,17.9Z" style="fill:white;fill-rule:nonzero;"/>
                    </g>
                    <g>
                        <path d="M27.7,1C12.8,1 0.7,13.1 0.7,28C0.7,42.9 12.8,55 27.7,55C42.6,55 54.7,42.9 54.7,28C54.6,13.1 42.5,1 27.7,1M52.9,28C52.9,41.9 41.6,53.2 27.7,53.2C13.7,53.2 2.5,41.9 2.5,28C2.5,14.1 13.8,2.8 27.7,2.8C41.6,2.8 52.9,14.1 52.9,28" style="fill:white;fill-rule:nonzero;"/>
                        <path d="M40.7,16.6C41.1,17 41.6,17.6 41.9,18L47.4,14.5C47.1,14.1 46.7,13.6 46.4,13.2L42.9,15.5L42.7,15.7L42.9,15.4L44.4,12.4L43.3,11.3L40.3,12.8L40,13L40.2,12.8L42.5,9.3C42.1,9 41.7,8.6 41.2,8.3L37.7,13.8C38.1,14.1 38.7,14.6 39.1,15L42.4,13.3L42.6,13.1L42.4,13.3L40.7,16.6Z" style="fill:white;fill-rule:nonzero;"/>
                        <path d="M28.3,9.7L29.8,6.4L29.9,6L29.9,6.3L30.1,10.8C30.6,10.9 31.2,10.9 31.7,11L31.5,4.4C30.8,4.3 30,4.3 29.3,4.2L27.8,7.8L27.7,8.1L27.6,7.8L26.1,4.2C25.4,4.2 24.6,4.3 23.9,4.4L23.7,11C24.2,10.9 24.8,10.8 25.3,10.8L25.5,6.3L25.5,6L25.6,6.3L27,9.7L28.3,9.7Z" style="fill:white;fill-rule:nonzero;"/>
                        <path d="M16.3,14.9C17.2,14 17.7,12.9 16.8,11.9C16.3,11.4 15.5,11.2 14.9,11.5L14.8,11.5L14.8,11.4C14.9,11.1 15,10.3 14.3,9.7C14,9.4 13.5,9.3 13.1,9.4C12.3,9.5 11.7,10 10,11.9C9.5,12.5 8.7,13.4 8.3,14L13,18.4C14.4,16.8 15.1,16.2 16.3,14.9M10.2,13.8C11.1,12.7 12.1,11.6 12.6,11.2C12.7,11.1 12.9,10.9 13.1,10.9C13.4,10.8 13.7,11 13.8,11.3C13.9,11.6 13.7,11.9 13.5,12.2C13,12.8 11.2,14.7 11.2,14.7L10.2,13.8M12,15.6C12,15.6 13.8,13.7 14.3,13.1C14.5,12.9 14.7,12.7 14.8,12.6C15,12.5 15.2,12.5 15.4,12.6C15.6,12.7 15.7,13 15.6,13.2C15.5,13.5 15.3,13.7 15.1,13.9C14.9,14.2 12.8,16.4 12.8,16.4L12,15.6Z" style="fill:white;fill-rule:nonzero;"/>
                        <path d="M43.6,28L27.6,28L27.6,12C36.5,12 43.6,19.2 43.6,28" style="fill:white;fill-rule:nonzero;"/>
                        <path d="M27.7,28L27.7,44C18.9,44 11.7,36.9 11.7,28L27.7,28Z" style="fill:white;fill-rule:nonzero;"/>
                        <path d="M27.7,12L27.7,28L11.7,28C11.7,19.2 18.8,12 27.7,12" style="fill:rgb(0,109,182);fill-rule:nonzero;"/>
                        <path d="M43.6,28C43.6,36.8 36.4,44 27.6,44L27.6,28L43.6,28Z" style="fill:rgb(0,109,182);fill-rule:nonzero;"/>
                        <path d="M27.5,1C12.7,1 0.7,13 0.7,27.8L0.7,28.2C0.7,43 12.7,55 27.5,55L27.9,55C42.7,55 54.7,43 54.7,28.2L54.7,27.8C54.6,13 42.6,1 27.9,1L27.5,1Z" style="fill:none;fill-rule:nonzero;"/>
                    </g>
                </g>
            </g>
        </g>
    </g>
</svg>
