<?xml version="1.0" encoding="UTF-8" standalone="no"?>
<!DOCTYPE svg PUBLIC "-//W3C//DTD SVG 1.1//EN" "http://www.w3.org/Graphics/SVG/1.1/DTD/svg11.dtd">
<svg width="100%" height="100%" viewBox="0 0 1252 128" version="1.1" xmlns="http://www.w3.org/2000/svg" xmlns:xlink="http://www.w3.org/1999/xlink" xml:space="preserve" xmlns:serif="http://www.serif.com/" style="fill-rule:evenodd;clip-rule:evenodd;stroke-linejoin:round;stroke-miterlimit:2;">
    <g transform="matrix(1,0,0,1,-82.473,-569.264)">
        <g transform="matrix(5.10628,0,0,5.10628,707.992,633.092)">
            <g transform="matrix(1,0,0,1,-122.5,-12.5)">
                <g id="Vrstva_1_1_">
                    <g>
                        <path d="M67,3.5L65.6,6.4L54.9,6.4L53,10.6L62.3,10.7L60.8,14.5L51.1,14.5L49.2,18.6L59.9,18.7L58.3,22.2L36.2,22.4L45,3.4L67,3.5Z" style="fill:white;"/>
                        <path d="M106.3,3.5L97.5,22.3L87.5,22.4L78.5,11.5L73.5,22.3L62.1,22.3L70.9,3.5L82.3,3.5L90.3,13.3L94.9,3.5L106.3,3.5Z" style="fill:white;"/>
                        <path d="M37.6,8.4C36.7,12.4 31.6,13 28.8,14L33.6,22.3L21.8,22.3L21.8,22.2L16,13.9L12.1,22.3L0.8,22.3L9.6,3.5L28.2,3.5C30.7,3.5 39.1,3.8 37.6,8.4M24.8,6.2C28.4,6.3 28.9,8.2 28,9.3C26.7,10.9 23.6,11.3 21.4,11.4L17.3,11.3L19.6,6.2L24.8,6.2" style="fill:white;"/>
                        <path d="M37.6,8.4C36.7,12.4 31.6,13 28.8,14L33.6,22.3L21.8,22.3L21.8,22.2L16,13.9L12.1,22.3L0.8,22.3L9.6,3.5L28.2,3.5C30.7,3.5 39.1,3.8 37.6,8.4M24.8,6.2C28.4,6.3 28.9,8.2 28,9.3C26.7,10.9 23.6,11.3 21.4,11.4L17.3,11.3L19.6,6.2L24.8,6.2" style="fill:white;"/>
                        <path d="M244,8.4C243.1,12.4 238,13 235.2,14L240,22.3L228.3,22.3L228.3,22.2L222.5,13.9L218.6,22.3L207.3,22.3L216,3.5L234.6,3.5C237.1,3.5 245.5,3.8 244,8.4M231.2,6.2C234.8,6.3 235.3,8.2 234.4,9.3C233.1,10.9 230,11.3 227.8,11.4L223.7,11.3L226,6.2L231.2,6.2" style="fill:white;"/>
                        <path d="M179.2,22.3L168.3,22.3L190.5,3.4L202,3.4L207.4,22.2L195.6,22.2L194.9,19L182.5,19L179.2,22.3M185.8,15.9L192.9,8.7L194.3,15.9L185.8,15.9" style="fill:white;"/>
                        <path d="M172.3,19.3L168.7,22.5C159.5,22.3 158.8,23.4 150,20.1C147.6,19.1 144.9,17.1 144,14.5C139.7,21.2 132,22.1 124.6,22.4C115.1,22.6 103.7,21.6 104.5,14.7C105.1,11.1 107,7.8 110.2,5.8C117.3,2.1 126.2,2.3 134.4,2.7C140,3.1 143.9,5.9 145,10C145.9,6.8 153.3,2.3 160.5,2.9L178.6,2.9L177.4,5.7C171.1,6.1 164.3,5.3 159,7.9C156.4,9.1 154.5,11.8 154.6,14.6C154.6,15.8 155.4,16.9 156.5,17.5C161.2,19.6 169.3,19.3 172.3,19.3M130.9,13.4C129.3,17.6 124.9,19.5 120.5,19.6C113.4,19.4 118.8,10 121.9,7.6C124.6,5.9 128.3,4.9 131.1,6.8C132.6,8.6 131.7,11.3 130.9,13.4" style="fill:white;"/>
                    </g>
                </g>
            </g>
        </g>
    </g>
</svg>
