<?xml version="1.0" encoding="UTF-8" standalone="no"?>
<!DOCTYPE svg PUBLIC "-//W3C//DTD SVG 1.1//EN" "http://www.w3.org/Graphics/SVG/1.1/DTD/svg11.dtd">
<svg width="100%" height="100%" viewBox="0 0 1006 163" version="1.1" xmlns="http://www.w3.org/2000/svg" xmlns:xlink="http://www.w3.org/1999/xlink" xml:space="preserve" xmlns:serif="http://www.serif.com/" style="fill-rule:evenodd;clip-rule:evenodd;stroke-linejoin:round;stroke-miterlimit:2;">
    <g transform="matrix(1,0,0,1,-82.473,-1508.5)">
        <g>
            <g transform="matrix(2.88513,0,0,2.88513,-7067.94,-3316.55)">
                <g transform="matrix(50,0,0,50,2826.08,1708.79)">
                </g>
                <text x="2579.79px" y="1708.79px" style="font-family:'Arial-BoldMT', 'Arial', sans-serif;font-weight:700;font-size:50px;fill:white;">UNITEST<tspan x="2789.97px " y="1708.79px ">A</tspan></text>
            </g>
            <g transform="matrix(1.01818,0,0,1.01818,-2241.25,-70.1441)">
                <g transform="matrix(50,0,0,50,3273.11,1708.79)">
                </g>
                <text x="2579.79px" y="1708.79px" style="font-family:'Arial-BoldMT', 'Arial', sans-serif;font-weight:700;font-size:50px;fill:white;">A<tspan x="2635.9px 2692.01px 2738.84px 2793.09px 2826.98px 2880.33px 2914.22px 2967.57px 3029.22px 3088.12px 3144.22px 3197.57px 3259.22px " y="1708.79px 1708.79px 1708.79px 1708.79px 1708.79px 1708.79px 1708.79px 1708.79px 1708.79px 1708.79px 1708.79px 1708.79px 1708.79px ">UTA S EMOCEMI</tspan></text>
            </g>
            <g transform="matrix(1,0,0,1,-1804.61,-149.078)">
                <path d="M1979.19,1779.96L2165.11,1779.96L2165.11,1820.22L2009.68,1820.22L1979.19,1779.96ZM1933.14,1719.16L2165.52,1719.16L2165.52,1759.42L1963.63,1759.42L1933.14,1719.16ZM1887.09,1658.36L2165.52,1658.36L2165.52,1698.62L1917.58,1698.62L1887.09,1658.36Z" style="fill:white;"/>
            </g>
        </g>
    </g>
</svg>
