<?xml version="1.0" encoding="UTF-8" standalone="no"?>
<!DOCTYPE svg PUBLIC "-//W3C//DTD SVG 1.1//EN" "http://www.w3.org/Graphics/SVG/1.1/DTD/svg11.dtd">
<svg width="100%" height="100%" viewBox="0 0 512 512" version="1.1" xmlns="http://www.w3.org/2000/svg" xmlns:xlink="http://www.w3.org/1999/xlink" xml:space="preserve" xmlns:serif="http://www.serif.com/" style="fill-rule:evenodd;clip-rule:evenodd;stroke-linejoin:round;stroke-miterlimit:2;">
    <rect x="0" y="0" width="512" height="512"/>
    <g transform="matrix(0.900272,0,0,0.900272,25.5303,25.5303)">
        <g transform="matrix(1.6974,0,0,1.6974,-98.2734,-163.802)">
            <rect x="139.14" y="184.69" width="10.04" height="125.26" style="fill:rgb(255,162,0);"/>
        </g>
        <g transform="matrix(1.6974,0,0,1.6974,-98.2734,-163.802)">
            <rect x="190.78" y="201.77" width="10.04" height="91.1" style="fill:rgb(255,162,0);"/>
        </g>
        <g transform="matrix(1.6974,0,0,1.6974,-98.2734,-163.802)">
            <rect x="164.96" y="139.14" width="10.04" height="216.36" style="fill:rgb(255,162,0);"/>
        </g>
        <g transform="matrix(1.6974,0,0,1.6974,-98.2734,-163.802)">
            <rect x="216.6" y="184.69" width="10.04" height="125.26" style="fill:rgb(255,162,0);"/>
        </g>
        <g transform="matrix(1.6974,0,0,1.6974,-98.2734,-163.802)">
            <rect x="268.25" y="201.77" width="10.04" height="91.1" style="fill:rgb(255,162,0);"/>
        </g>
        <g transform="matrix(1.6974,0,0,1.6974,-98.2734,-163.802)">
            <rect x="242.43" y="139.14" width="10.04" height="216.36" style="fill:rgb(255,162,0);"/>
        </g>
    </g>
</svg>
